<?xml version="1.0"?>
<svg width="180" height="180" xmlns="http://www.w3.org/2000/svg" xmlns:svg="http://www.w3.org/2000/svg" version="1.0">
 <metadata id="metadata2173">image/svg+xml</metadata>
 <g class="layer">
  <title>Layer 1</title>
  <g id="layer1" transform="matrix(0.829747 0.829747 -0.829747 0.829747 257.758 -699.262)">
   <path d="m339.28,603.5l0,1.5l0,1.1l0.06,1.17l0.07,1.24l0.1,1.27l0.13,1.14l0.06,0.88l0.07,0.58l0,0.33l0,0.48l-0.07,0.49l-0.06,0.49l-0.1,0.49l-0.13,0.49l-0.2,0.45l-0.19,0.46l-0.23,0.45l-0.23,0.46l-0.29,0.45l-0.33,0.43l-0.35,0.42l-0.36,0.42l-0.42,0.42l-0.43,0.43l-0.48,0.39l-0.49,0.39l-0.49,0.36l-0.52,0.35l-0.52,0.3l-0.55,0.29l-0.56,0.26l-0.55,0.23l-0.58,0.23l-0.62,0.19l-0.59,0.16l-0.65,0.13l-0.62,0.1l-0.65,0.1l-0.68,0.06l-0.65,0.04l-0.68,0l-1.01,0l-0.98,-0.07l-0.94,-0.1l-0.94,-0.13l-0.91,-0.16l-0.88,-0.23l-0.85,-0.26l-0.84,-0.29l-0.82,-0.33l-0.78,-0.35l-0.78,-0.43l-0.75,-0.42l-0.71,-0.49l-0.68,-0.52l-0.69,-0.58l-0.65,-0.59l-0.65,-0.65l-0.58,-0.65l-0.56,-0.72l-0.55,-0.74l-0.52,-0.75l-0.45,-0.82l-0.46,-0.84l-0.42,-0.88l-0.39,-0.88l-0.33,-0.94l-0.32,-0.98l-0.33,-1.01l-0.26,-1l-0.23,-1.08l-0.19,-1.1l-0.2,-1.14l-4.03,-1.4l0.39,-1.2l0.46,-1.21l0.48,-1.17l0.56,-1.11l0.61,-1.1l0.66,-1.04l0.35,-0.52l0.39,-0.52l0.39,-0.52l0.39,-0.49l0.2,-1.73l0.26,-1.66l0.16,-0.81l0.16,-0.81l0.17,-0.82l0.19,-0.78l0.23,-0.78l0.23,-0.74l0.22,-0.75l0.27,-0.75l0.26,-0.75l0.26,-0.72l0.29,-0.71l0.32,-0.68l0.33,-0.72l0.32,-0.68l0.36,-0.65l0.36,-0.65l0.39,-0.65l0.39,-0.66l0.39,-0.61l0.42,-0.62l0.46,-0.62l0.42,-0.59l0.49,-0.58l0.45,-0.55l0.49,-0.59l0.52,-0.55l0.52,-0.52l0.52,-0.52l0.56,-0.52l0.58,-0.52l0.55,-0.49l0.59,-0.49l0.62,-0.46l0.62,-0.48l0.61,-0.43l0.65,-0.45l0.65,-0.42l0.69,-0.43l0.68,-0.39l0.68,-0.39l1.43,-0.75l1.5,-0.71l1.53,-0.65l1.59,-0.62l1.66,-0.59l1.72,-0.52l1.76,-0.45l1.82,-0.43l1.86,-0.39l1.91,-0.35l-0.32,-0.59l-0.39,-0.58l-0.42,-0.56l-0.49,-0.52l-0.59,-0.49l-0.58,-0.45l-0.69,-0.42l-0.74,-0.43l-0.78,-0.36l-0.85,-0.35l-0.91,-0.33l-0.94,-0.29l-1.04,-0.26l-1.08,-0.23l-1.14,-0.19l-1.17,-0.2l-0.68,-0.06l-0.58,-0.1l-0.52,-0.1l-0.43,-0.06l-1.04,-0.17l-1.01,-0.19l-0.97,-0.2l-0.91,-0.23l-0.91,-0.22l-0.85,-0.23l-0.81,-0.26l-0.78,-0.29l-0.75,-0.26l-0.72,-0.33l-0.65,-0.29l-0.65,-0.33l-0.58,-0.36l-0.56,-0.35l-0.52,-0.36l-0.48,-0.39l-0.46,-0.42l-0.42,-0.43l-0.39,-0.45l-0.39,-0.46l-0.33,-0.49l-0.29,-0.52l-0.29,-0.52l-0.23,-0.55l-0.23,-0.55l-0.19,-0.59l-0.17,-0.62l-0.13,-0.62l-0.09,-0.65l-0.07,-0.65l-0.03,-0.71l-0.03,-0.69l0,-0.55l0.03,-0.55l0.06,-0.55l0.07,-0.52l0.1,-0.53l0.09,-0.48l0.13,-0.52l0.17,-0.49l0.16,-0.46l0.19,-0.49l0.23,-0.45l0.23,-0.46l0.26,-0.45l0.26,-0.42l0.29,-0.43l0.3,-0.42l0.35,-0.42l0.33,-0.39l0.39,-0.39l0.39,-0.36l0.39,-0.36l0.42,-0.36l0.46,-0.32l0.45,-0.33l0.49,-0.32l0.49,-0.3l0.52,-0.26l0.52,-0.29l0.55,-0.26l0.59,-0.23l0.58,-0.26l0.59,-0.19l7.25,-0.36l-0.39,0.42l-0.39,0.43l-0.36,0.42l-0.32,0.42l-0.3,0.42l-0.26,0.43l-0.26,0.45l-0.22,0.43l-0.2,0.45l-0.19,0.42l-0.13,0.46l-0.13,0.42l-0.1,0.43l-0.07,0.45l-0.03,0.42l-0.03,0.43l0.03,0.35l0.03,0.36l0.04,0.36l0.06,0.33l0.1,0.35l0.1,0.36l0.13,0.36l0.16,0.36l0.16,0.35l0.2,0.36l0.19,0.36l0.23,0.36l0.52,0.71l0.59,0.72l0.68,0.75l0.75,0.71l0.81,0.75l0.91,0.72l0.98,0.75l1.07,0.74l1.14,0.72l1.23,0.75l0.49,0.32l0.46,0.26l0.39,0.23l0.32,0.16l1.07,0.72l1.05,0.71l0.97,0.75l0.91,0.72l0.85,0.75l0.78,0.74l0.75,0.79l0.65,0.74l0.61,0.82l0.59,0.84l0.55,0.88l0.52,0.88l0.46,0.94l0.45,0.98l0.39,1.04l0.39,1.04l2.22,0.26l2.11,0.33l1.01,0.19l1.01,0.16l0.97,0.23l0.98,0.2l0.94,0.23l0.91,0.26l0.88,0.26l0.84,0.26l0.85,0.29l0.81,0.26l0.82,0.32l0.74,0.3l0.75,0.35l0.75,0.33l0.72,0.39l0.71,0.36l0.72,0.39l0.68,0.42l0.65,0.42l0.65,0.46l0.62,0.46l0.65,0.45l0.58,0.49l0.59,0.52l0.59,0.52l0.55,0.52l0.55,0.55l0.55,0.59l0.62,-0.33l-0.52,-0.97l-0.52,-0.95l-0.45,-0.94l-0.46,-0.94l-0.39,-0.91l-0.36,-0.91l-0.36,-0.92l-0.29,-0.87l-0.26,-0.88l-0.26,-0.85l-0.19,-0.84l-0.17,-0.85l-0.13,-0.81l-0.06,-0.78l-0.07,-0.78l0,-0.78l0,-1.05l0.1,-1l0.13,-1.01l0.16,-0.98l0.23,-0.94l0.26,-0.95l0.33,-0.91l0.39,-0.91l0.42,-0.84l0.46,-0.85l0.55,-0.81l0.55,-0.82l0.62,-0.78l0.68,-0.74l0.72,-0.75l0.78,-0.72l0.81,-0.65l0.85,-0.65l0.87,-0.59l0.88,-0.55l0.91,-0.49l0.95,-0.45l0.97,-0.42l1.01,-0.36l1.01,-0.33l1.04,-0.29l1.07,-0.23l1.11,-0.19l1.14,-0.17l1.13,-0.09l1.18,-0.07l1.2,-0.03l0.78,0l0.78,0.03l0.75,0.03l0.75,0.07l0.78,0.06l0.74,0.1l0.72,0.13l0.75,0.13l0.75,0.13l0.71,0.16l0.72,0.2l0.71,0.2l0.72,0.19l0.68,0.23l0.72,0.26l0.68,0.26l0.68,0.29l0.69,0.29l0.68,0.33l0.65,0.32l0.65,0.36l0.68,0.36l0.65,0.39l0.62,0.39l0.65,0.42l0.62,0.43l0.65,0.45l0.62,0.46l0.62,0.49l0.61,0.52l0.59,0.52l0.62,0.52l1.13,1.1l1.11,1.14l0.52,0.59l0.49,0.55l0.49,0.62l0.48,0.58l0.46,0.62l0.46,0.62l0.42,0.62l0.42,0.62l0.39,0.65l0.36,0.65l0.39,0.65l0.32,0.65l0.33,0.68l0.32,0.65l0.3,0.69l0.29,0.68l0.26,0.71l0.26,0.72l0.23,0.72l0.23,0.71l0.19,0.72l0.2,0.75l0.16,0.74l0.16,0.75l0.13,0.75l0.13,0.78l0.1,0.75l0.1,0.78l0.06,0.65l0.07,0.72l0.06,0.78l0.1,0.84l0.06,0.91l0.1,0.98l0.1,1.01l0.1,1.1l0.39,3.81l0.39,3.42l0.19,1.56l0.23,1.46l0.2,1.37l0.22,1.3l0.23,1.17l0.23,1.07l0.23,0.98l0.22,0.88l0.26,0.78l0.23,0.68l0.26,0.59l0.26,0.49l0.46,0.78l0.52,0.74l0.55,0.69l0.62,0.65l0.65,0.62l0.68,0.55l0.75,0.52l0.78,0.49l0.81,0.42l0.82,0.39l0.84,0.33l0.85,0.26l0.88,0.19l0.87,0.13l0.91,0.1l0.91,0.03l0.66,0l0.61,-0.06l0.62,-0.07l0.59,-0.1l0.58,-0.09l0.59,-0.17l0.55,-0.16l0.55,-0.19l0.56,-0.26l0.52,-0.23l0.48,-0.29l0.52,-0.33l0.46,-0.33l0.49,-0.35l0.45,-0.39l0.46,-0.43l0.42,-0.42l0.39,-0.45l0.36,-0.49l0.32,-0.46l0.33,-0.49l0.29,-0.52l0.26,-0.52l0.23,-0.52l0.2,-0.55l0.16,-0.55l0.16,-0.56l0.13,-0.58l0.1,-0.59l0.06,-0.62l0.04,-0.61l0,-0.62l0,-0.62l-0.07,-0.68l-0.13,-0.72l-0.16,-0.75l-0.23,-0.84l-0.29,-0.98l-0.36,-1.1l-0.46,-1.21l0.33,-0.52l0.36,-0.49l0.39,-0.45l0.39,-0.43l0.42,-0.39l0.42,-0.32l0.46,-0.33l0.49,-0.29l0.48,-0.26l0.49,-0.23l0.56,-0.19l0.55,-0.16l0.55,-0.14l0.59,-0.09l0.61,-0.04l0.62,-0.03l0.75,0.03l0.68,0.1l0.36,0.07l0.33,0.06l0.32,0.1l0.33,0.13l0.29,0.13l0.29,0.13l0.29,0.16l0.3,0.17l0.26,0.16l0.26,0.23l0.26,0.19l0.26,0.23l0.42,0.49l0.42,0.52l0.17,0.26l0.16,0.29l0.13,0.26l0.13,0.29l0.13,0.3l0.1,0.32l0.06,0.29l0.07,0.33l0.09,0.65l0.04,0.68l0,0.43l-0.04,0.45l-0.06,0.42l-0.1,0.46l-0.1,0.46l-0.13,0.45l-0.13,0.46l-0.19,0.45l-0.2,0.46l-0.19,0.49l-0.26,0.45l-0.26,0.49l-0.26,0.49l-0.33,0.48l-0.32,0.49l-0.36,0.49l-0.78,0.98l-0.85,1.04l-0.97,1.04l-1.08,1.07l-1.2,1.08l-1.27,1.1l-1.36,1.14l-1.47,1.17l-1.98,1.5l-1.98,1.43l-1.96,1.4l-1.95,1.33l-1.95,1.3l-1.95,1.27l-1.92,1.21l-1.92,1.17l-1.92,1.1l-1.91,1.08l-1.92,1.04l-1.89,0.97l-1.89,0.91l-1.88,0.88l-1.89,0.85l-1.85,0.81l-1.86,0.75l-1.85,0.68l-1.82,0.65l-1.85,0.62l-1.79,0.55l-1.82,0.49l-1.79,0.46l-1.79,0.42l-1.79,0.36l-1.76,0.32l-1.75,0.26l-1.73,0.2l-1.72,0.19l-1.72,0.1l-1.73,0.07l-1.69,0.03l-1.07,0l-1.04,-0.03l-1.08,-0.04l-1,-0.06l-1.05,-0.07l-1,-0.09l-0.98,-0.1l-1.01,-0.13l-0.97,-0.13l-0.95,-0.16l-0.97,-0.2l-0.91,-0.19l-0.95,-0.2l-0.91,-0.23l-0.91,-0.22l-0.91,-0.26l-0.88,-0.3l-0.84,-0.26l-0.88,-0.32l-0.84,-0.33l-0.85,-0.32l-0.81,-0.36l-0.82,-0.39l-0.81,-0.39l-0.78,-0.39l-0.78,-0.43l-0.78,-0.45l-0.75,-0.46l-0.75,-0.45l-0.71,-0.49l-0.72,-0.52l-0.71,-0.52l-0.72,-0.52l-0.65,-0.55l-0.65,-0.56l-0.62,-0.55l-0.62,-0.59l-0.58,-0.55l-0.55,-0.58l-0.52,-0.59l-0.52,-0.62l-0.53,-0.58l-0.45,-0.62l-0.46,-0.62l-0.42,-0.65l-0.42,-0.62l-0.36,-0.65l-0.36,-0.65l-0.35,-0.65l-0.33,-0.68l-0.29,-0.69l-0.26,-0.68l-0.26,-0.68l-0.23,-0.72l-0.23,-0.68l-0.16,-0.72l-0.16,-0.75l-0.17,-0.71l-0.13,-0.75l-0.09,-0.75l-0.07,-0.75l-0.06,-0.74l-0.04,-0.79l0,-0.78l0,-0.87l0.07,-0.85l0.06,-0.85l0.1,-0.81l0.16,-0.81l0.17,-0.78l0.19,-0.75l0.23,-0.75l0.26,-0.72l0.26,-0.68l0.33,-0.68l0.35,-0.65l0.36,-0.65l0.42,-0.62l0.46,-0.59l0.45,-0.55l0.49,-0.55l0.52,-0.52l0.56,-0.49l0.58,-0.49l0.59,-0.42l0.61,-0.42l0.65,-0.43l0.69,-0.36l0.71,-0.32l0.72,-0.33l0.78,-0.29l0.78,-0.26l0.81,-0.26l0.85,-0.23l0.84,-0.16l0.88,-0.16l0.2,-0.52l-0.59,-0.69l-0.62,-0.65l-0.58,-0.65l-0.62,-0.62l-0.62,-0.61l-0.62,-0.59l-0.61,-0.55l-0.62,-0.56l-0.65,-0.48l-0.65,-0.52l-0.65,-0.46l-0.65,-0.49l-0.69,-0.42l-0.65,-0.42l-0.68,-0.39l-0.68,-0.36l-0.72,-0.36l-0.68,-0.36l-0.72,-0.29l-0.71,-0.29l-0.72,-0.3l-0.71,-0.26l-0.72,-0.22l-0.75,-0.2l-0.74,-0.19l-0.75,-0.2l-0.75,-0.13l-0.78,-0.13l-0.75,-0.13l-0.78,-0.06l-0.78,-0.1l-0.78,-0.03l-0.07,1.33l-0.13,1.33l-0.16,1.3l-0.23,1.27l-0.26,1.24l-0.29,1.24l-0.36,1.17l-0.39,1.17l-0.45,1.14l-0.49,1.1l-0.52,1.08l-0.59,1.07l-0.61,1.01l-0.69,1.01l-0.71,0.97l-0.75,0.95l-0.81,0.94l-0.91,0.91l-0.98,0.94l-1.01,0.95l-1.14,0.91l-1.17,0.94l-1.27,0.91l-1.33,0.95l-1.4,0.94l-1.46,0.91l-1.56,0.94l-1.63,0.91l-1.69,0.95l-1.76,0.91l-1.85,0.94l-1.92,0.91l0.07,0.52l0.09,0.49l0.1,0.49l0.13,0.49l0.13,0.45l0.13,0.46l0.17,0.42l0.19,0.42l0.2,0.43l0.19,0.39l0.23,0.39l0.23,0.36l0.26,0.35l0.29,0.36l0.26,0.33l0.32,0.29l0.33,0.32l0.32,0.26l0.33,0.26l0.36,0.26l0.36,0.23l0.39,0.2l0.39,0.16l0.39,0.16l0.39,0.17l0.42,0.13l0.42,0.09l0.42,0.1l0.46,0.07l0.46,0.03l0.45,0.03l0.46,0l0.55,0l0.55,-0.06l0.55,-0.07l0.56,-0.1l0.55,-0.13l0.55,-0.16l0.56,-0.19l0.58,-0.23l0.59,-0.26l0.61,-0.3l0.66,-0.32l0.65,-0.36l0.71,-0.39l0.72,-0.42l0.78,-0.49l0.78,-0.52zm-21.01,-13.66l1.62,-0.49l1.53,-0.52l1.5,-0.52l1.46,-0.56l1.37,-0.55l1.33,-0.55l1.27,-0.59l1.2,-0.61l1.17,-0.59l1.08,-0.62l1.04,-0.65l1.01,-0.65l0.91,-0.65l0.88,-0.68l0.81,-0.72l0.75,-0.68l0.68,-0.75l0.68,-0.75l0.59,-0.75l0.58,-0.81l0.52,-0.81l0.46,-0.85l0.45,-0.88l0.36,-0.91l0.36,-0.91l0.29,-0.94l0.23,-0.98l0.2,-1.01l0.16,-1.01l0.13,-1.04l0.06,-1.07l0,-1.11l0,-0.32l-1.46,0.29l-1.4,0.33l-1.37,0.35l-1.33,0.39l-1.27,0.43l-1.23,0.42l-1.21,0.49l-1.13,0.49l-1.08,0.55l-1.07,0.55l-0.98,0.59l-0.97,0.62l-0.91,0.65l-0.88,0.65l-0.81,0.71l-0.78,0.72l-0.72,0.78l-0.68,0.78l-0.65,0.85l-0.62,0.84l-0.55,0.91l-0.52,0.95l-0.49,0.94l-0.46,1.01l-0.39,1.04l-0.36,1.07l-0.32,1.11l-0.29,1.14l-0.26,1.17l-0.2,1.2l-0.16,1.24l-0.13,1.27z" fill="#fafaf9" fill-rule="evenodd" id="path2229" stroke="#888888" stroke-width="4"/>
  </g>
 </g>
</svg>